<?xml version="1.0" encoding="utf-8" standalone="no"?>
<!DOCTYPE svg PUBLIC "-//W3C//DTD SVG 1.1//EN"
  "http://www.w3.org/Graphics/SVG/1.1/DTD/svg11.dtd">
<!-- Created with matplotlib (https://matplotlib.org/) -->
<svg height="248.518125pt" version="1.1" viewBox="0 0 370.942187 248.518125" width="370.942187pt" xmlns="http://www.w3.org/2000/svg" xmlns:xlink="http://www.w3.org/1999/xlink">
 <metadata>
  <rdf:RDF xmlns:cc="http://creativecommons.org/ns#" xmlns:dc="http://purl.org/dc/elements/1.1/" xmlns:rdf="http://www.w3.org/1999/02/22-rdf-syntax-ns#">
   <cc:Work>
    <dc:type rdf:resource="http://purl.org/dc/dcmitype/StillImage"/>
    <dc:date>2021-04-29T09:19:10.064753</dc:date>
    <dc:format>image/svg+xml</dc:format>
    <dc:creator>
     <cc:Agent>
      <dc:title>Matplotlib v3.3.4, https://matplotlib.org/</dc:title>
     </cc:Agent>
    </dc:creator>
   </cc:Work>
  </rdf:RDF>
 </metadata>
 <defs>
  <style type="text/css">*{stroke-linecap:butt;stroke-linejoin:round;}</style>
 </defs>
 <g id="figure_1">
  <g id="patch_1">
   <path d="M 0 248.518125 
L 370.942187 248.518125 
L 370.942187 0 
L 0 0 
z
" style="fill:none;"/>
  </g>
  <g id="axes_1">
   <g id="patch_2">
    <path d="M 28.942188 224.64 
L 363.742188 224.64 
L 363.742188 7.2 
L 28.942188 7.2 
z
" style="fill:#ffffff;"/>
   </g>
   <g id="PathCollection_1">
    <defs>
     <path d="M 0 3 
C 0.795609 3 1.55874 2.683901 2.12132 2.12132 
C 2.683901 1.55874 3 0.795609 3 0 
C 3 -0.795609 2.683901 -1.55874 2.12132 -2.12132 
C 1.55874 -2.683901 0.795609 -3 0 -3 
C -0.795609 -3 -1.55874 -2.683901 -2.12132 -2.12132 
C -2.683901 -1.55874 -3 -0.795609 -3 0 
C -3 0.795609 -2.683901 1.55874 -2.12132 2.12132 
C -1.55874 2.683901 -0.795609 3 0 3 
z
" id="me5c7e0cc79" style="stroke:#1f77b4;"/>
    </defs>
    <g clip-path="url(#p36de500554)">
     <use style="fill:#1f77b4;stroke:#1f77b4;" x="162.682437" xlink:href="#me5c7e0cc79" y="85.309137"/>
     <use style="fill:#1f77b4;stroke:#1f77b4;" x="201.424345" xlink:href="#me5c7e0cc79" y="53.406364"/>
     <use style="fill:#1f77b4;stroke:#1f77b4;" x="246.831812" xlink:href="#me5c7e0cc79" y="151.959072"/>
     <use style="fill:#1f77b4;stroke:#1f77b4;" x="149.069748" xlink:href="#me5c7e0cc79" y="67.719262"/>
     <use style="fill:#1f77b4;stroke:#1f77b4;" x="183.770712" xlink:href="#me5c7e0cc79" y="94.935895"/>
     <use style="fill:#1f77b4;stroke:#1f77b4;" x="203.638312" xlink:href="#me5c7e0cc79" y="142.26455"/>
     <use style="fill:#1f77b4;stroke:#1f77b4;" x="118.096274" xlink:href="#me5c7e0cc79" y="94.614711"/>
     <use style="fill:#1f77b4;stroke:#1f77b4;" x="194.392863" xlink:href="#me5c7e0cc79" y="74.280582"/>
     <use style="fill:#1f77b4;stroke:#1f77b4;" x="190.73068" xlink:href="#me5c7e0cc79" y="63.161284"/>
     <use style="fill:#1f77b4;stroke:#1f77b4;" x="283.072369" xlink:href="#me5c7e0cc79" y="162.432258"/>
     <use style="fill:#1f77b4;stroke:#1f77b4;" x="186.265111" xlink:href="#me5c7e0cc79" y="77.775876"/>
     <use style="fill:#1f77b4;stroke:#1f77b4;" x="184.127511" xlink:href="#me5c7e0cc79" y="159.176725"/>
     <use style="fill:#1f77b4;stroke:#1f77b4;" x="202.562333" xlink:href="#me5c7e0cc79" y="186.430997"/>
     <use style="fill:#1f77b4;stroke:#1f77b4;" x="151.432079" xlink:href="#me5c7e0cc79" y="79.340751"/>
     <use style="fill:#1f77b4;stroke:#1f77b4;" x="164.257695" xlink:href="#me5c7e0cc79" y="58.116187"/>
     <use style="fill:#1f77b4;stroke:#1f77b4;" x="257.417454" xlink:href="#me5c7e0cc79" y="214.756364"/>
     <use style="fill:#1f77b4;stroke:#1f77b4;" x="293.995827" xlink:href="#me5c7e0cc79" y="179.213978"/>
     <use style="fill:#1f77b4;stroke:#1f77b4;" x="185.146582" xlink:href="#me5c7e0cc79" y="78.460746"/>
     <use style="fill:#1f77b4;stroke:#1f77b4;" x="189.898075" xlink:href="#me5c7e0cc79" y="67.846391"/>
     <use style="fill:#1f77b4;stroke:#1f77b4;" x="317.205323" xlink:href="#me5c7e0cc79" y="190.775232"/>
     <use style="fill:#1f77b4;stroke:#1f77b4;" x="280.23748" xlink:href="#me5c7e0cc79" y="206.91788"/>
     <use style="fill:#1f77b4;stroke:#1f77b4;" x="264.396709" xlink:href="#me5c7e0cc79" y="193.219472"/>
     <use style="fill:#1f77b4;stroke:#1f77b4;" x="132.983157" xlink:href="#me5c7e0cc79" y="63.364408"/>
     <use style="fill:#1f77b4;stroke:#1f77b4;" x="277.909871" xlink:href="#me5c7e0cc79" y="191.955353"/>
     <use style="fill:#1f77b4;stroke:#1f77b4;" x="178.954076" xlink:href="#me5c7e0cc79" y="43.93336"/>
     <use style="fill:#1f77b4;stroke:#1f77b4;" x="256.656013" xlink:href="#me5c7e0cc79" y="174.758422"/>
     <use style="fill:#1f77b4;stroke:#1f77b4;" x="137.513694" xlink:href="#me5c7e0cc79" y="61.626059"/>
     <use style="fill:#1f77b4;stroke:#1f77b4;" x="277.206329" xlink:href="#me5c7e0cc79" y="177.504151"/>
     <use style="fill:#1f77b4;stroke:#1f77b4;" x="212.845103" xlink:href="#me5c7e0cc79" y="164.301602"/>
     <use style="fill:#1f77b4;stroke:#1f77b4;" x="255.319573" xlink:href="#me5c7e0cc79" y="155.202761"/>
     <use style="fill:#1f77b4;stroke:#1f77b4;" x="237.063744" xlink:href="#me5c7e0cc79" y="144.257253"/>
     <use style="fill:#1f77b4;stroke:#1f77b4;" x="203.465148" xlink:href="#me5c7e0cc79" y="205.795398"/>
     <use style="fill:#1f77b4;stroke:#1f77b4;" x="161.656108" xlink:href="#me5c7e0cc79" y="78.969316"/>
     <use style="fill:#1f77b4;stroke:#1f77b4;" x="206.718764" xlink:href="#me5c7e0cc79" y="84.538772"/>
     <use style="fill:#1f77b4;stroke:#1f77b4;" x="246.254571" xlink:href="#me5c7e0cc79" y="190.998478"/>
     <use style="fill:#1f77b4;stroke:#1f77b4;" x="81.852651" xlink:href="#me5c7e0cc79" y="82.761519"/>
     <use style="fill:#1f77b4;stroke:#1f77b4;" x="348.524006" xlink:href="#me5c7e0cc79" y="174.817636"/>
     <use style="fill:#1f77b4;stroke:#1f77b4;" x="139.301234" xlink:href="#me5c7e0cc79" y="46.568276"/>
     <use style="fill:#1f77b4;stroke:#1f77b4;" x="314.291618" xlink:href="#me5c7e0cc79" y="190.219931"/>
     <use style="fill:#1f77b4;stroke:#1f77b4;" x="194.156075" xlink:href="#me5c7e0cc79" y="174.86678"/>
     <use style="fill:#1f77b4;stroke:#1f77b4;" x="188.406231" xlink:href="#me5c7e0cc79" y="70.244724"/>
     <use style="fill:#1f77b4;stroke:#1f77b4;" x="257.597963" xlink:href="#me5c7e0cc79" y="189.067985"/>
     <use style="fill:#1f77b4;stroke:#1f77b4;" x="211.962106" xlink:href="#me5c7e0cc79" y="163.29458"/>
     <use style="fill:#1f77b4;stroke:#1f77b4;" x="117.11592" xlink:href="#me5c7e0cc79" y="82.44093"/>
     <use style="fill:#1f77b4;stroke:#1f77b4;" x="211.010497" xlink:href="#me5c7e0cc79" y="205.149953"/>
     <use style="fill:#1f77b4;stroke:#1f77b4;" x="90.761308" xlink:href="#me5c7e0cc79" y="71.069529"/>
     <use style="fill:#1f77b4;stroke:#1f77b4;" x="131.394918" xlink:href="#me5c7e0cc79" y="69.422083"/>
     <use style="fill:#1f77b4;stroke:#1f77b4;" x="143.780267" xlink:href="#me5c7e0cc79" y="88.386971"/>
     <use style="fill:#1f77b4;stroke:#1f77b4;" x="232.385376" xlink:href="#me5c7e0cc79" y="207.647722"/>
     <use style="fill:#1f77b4;stroke:#1f77b4;" x="169.244722" xlink:href="#me5c7e0cc79" y="65.390285"/>
     <use style="fill:#1f77b4;stroke:#1f77b4;" x="104.258009" xlink:href="#me5c7e0cc79" y="91.872761"/>
     <use style="fill:#1f77b4;stroke:#1f77b4;" x="283.279455" xlink:href="#me5c7e0cc79" y="199.895371"/>
     <use style="fill:#1f77b4;stroke:#1f77b4;" x="240.797529" xlink:href="#me5c7e0cc79" y="177.658212"/>
     <use style="fill:#1f77b4;stroke:#1f77b4;" x="320.978064" xlink:href="#me5c7e0cc79" y="181.3167"/>
     <use style="fill:#1f77b4;stroke:#1f77b4;" x="195.739529" xlink:href="#me5c7e0cc79" y="77.395269"/>
     <use style="fill:#1f77b4;stroke:#1f77b4;" x="110.710252" xlink:href="#me5c7e0cc79" y="66.366245"/>
     <use style="fill:#1f77b4;stroke:#1f77b4;" x="216.071159" xlink:href="#me5c7e0cc79" y="75.609335"/>
     <use style="fill:#1f77b4;stroke:#1f77b4;" x="203.505787" xlink:href="#me5c7e0cc79" y="180.683456"/>
     <use style="fill:#1f77b4;stroke:#1f77b4;" x="82.38257" xlink:href="#me5c7e0cc79" y="51.158642"/>
     <use style="fill:#1f77b4;stroke:#1f77b4;" x="199.086661" xlink:href="#me5c7e0cc79" y="82.889821"/>
     <use style="fill:#1f77b4;stroke:#1f77b4;" x="208.308192" xlink:href="#me5c7e0cc79" y="146.650509"/>
     <use style="fill:#1f77b4;stroke:#1f77b4;" x="192.568712" xlink:href="#me5c7e0cc79" y="196.959349"/>
     <use style="fill:#1f77b4;stroke:#1f77b4;" x="90.04714" xlink:href="#me5c7e0cc79" y="93.554178"/>
     <use style="fill:#1f77b4;stroke:#1f77b4;" x="149.834273" xlink:href="#me5c7e0cc79" y="62.871116"/>
     <use style="fill:#1f77b4;stroke:#1f77b4;" x="210.949407" xlink:href="#me5c7e0cc79" y="159.481103"/>
     <use style="fill:#1f77b4;stroke:#1f77b4;" x="238.198518" xlink:href="#me5c7e0cc79" y="155.876649"/>
     <use style="fill:#1f77b4;stroke:#1f77b4;" x="130.206805" xlink:href="#me5c7e0cc79" y="57.792545"/>
     <use style="fill:#1f77b4;stroke:#1f77b4;" x="162.51897" xlink:href="#me5c7e0cc79" y="103.992196"/>
     <use style="fill:#1f77b4;stroke:#1f77b4;" x="168.449928" xlink:href="#me5c7e0cc79" y="53.877088"/>
     <use style="fill:#1f77b4;stroke:#1f77b4;" x="269.755817" xlink:href="#me5c7e0cc79" y="170.535768"/>
     <use style="fill:#1f77b4;stroke:#1f77b4;" x="250.37605" xlink:href="#me5c7e0cc79" y="201.339282"/>
     <use style="fill:#1f77b4;stroke:#1f77b4;" x="233.738905" xlink:href="#me5c7e0cc79" y="199.389507"/>
     <use style="fill:#1f77b4;stroke:#1f77b4;" x="94.111011" xlink:href="#me5c7e0cc79" y="65.087582"/>
     <use style="fill:#1f77b4;stroke:#1f77b4;" x="115.61941" xlink:href="#me5c7e0cc79" y="59.5307"/>
     <use style="fill:#1f77b4;stroke:#1f77b4;" x="227.528005" xlink:href="#me5c7e0cc79" y="68.527428"/>
     <use style="fill:#1f77b4;stroke:#1f77b4;" x="222.615269" xlink:href="#me5c7e0cc79" y="197.219377"/>
     <use style="fill:#1f77b4;stroke:#1f77b4;" x="116.498439" xlink:href="#me5c7e0cc79" y="76.235932"/>
     <use style="fill:#1f77b4;stroke:#1f77b4;" x="199.918572" xlink:href="#me5c7e0cc79" y="172.036469"/>
     <use style="fill:#1f77b4;stroke:#1f77b4;" x="235.16926" xlink:href="#me5c7e0cc79" y="165.444572"/>
     <use style="fill:#1f77b4;stroke:#1f77b4;" x="119.292601" xlink:href="#me5c7e0cc79" y="47.986513"/>
     <use style="fill:#1f77b4;stroke:#1f77b4;" x="151.611802" xlink:href="#me5c7e0cc79" y="55.073199"/>
     <use style="fill:#1f77b4;stroke:#1f77b4;" x="233.870519" xlink:href="#me5c7e0cc79" y="167.556158"/>
     <use style="fill:#1f77b4;stroke:#1f77b4;" x="218.190828" xlink:href="#me5c7e0cc79" y="174.942981"/>
     <use style="fill:#1f77b4;stroke:#1f77b4;" x="278.348361" xlink:href="#me5c7e0cc79" y="177.372307"/>
     <use style="fill:#1f77b4;stroke:#1f77b4;" x="88.805894" xlink:href="#me5c7e0cc79" y="56.575346"/>
     <use style="fill:#1f77b4;stroke:#1f77b4;" x="182.607121" xlink:href="#me5c7e0cc79" y="83.663835"/>
     <use style="fill:#1f77b4;stroke:#1f77b4;" x="140.089672" xlink:href="#me5c7e0cc79" y="58.211534"/>
     <use style="fill:#1f77b4;stroke:#1f77b4;" x="201.75616" xlink:href="#me5c7e0cc79" y="67.683221"/>
     <use style="fill:#1f77b4;stroke:#1f77b4;" x="126.327626" xlink:href="#me5c7e0cc79" y="69.415903"/>
     <use style="fill:#1f77b4;stroke:#1f77b4;" x="253.515644" xlink:href="#me5c7e0cc79" y="139.243985"/>
     <use style="fill:#1f77b4;stroke:#1f77b4;" x="156.154527" xlink:href="#me5c7e0cc79" y="124.627164"/>
     <use style="fill:#1f77b4;stroke:#1f77b4;" x="275.810722" xlink:href="#me5c7e0cc79" y="204.329414"/>
     <use style="fill:#1f77b4;stroke:#1f77b4;" x="186.920334" xlink:href="#me5c7e0cc79" y="98.597186"/>
     <use style="fill:#1f77b4;stroke:#1f77b4;" x="214.591841" xlink:href="#me5c7e0cc79" y="76.546036"/>
     <use style="fill:#1f77b4;stroke:#1f77b4;" x="210.179015" xlink:href="#me5c7e0cc79" y="67.713768"/>
     <use style="fill:#1f77b4;stroke:#1f77b4;" x="44.160369" xlink:href="#me5c7e0cc79" y="44.529504"/>
     <use style="fill:#1f77b4;stroke:#1f77b4;" x="199.724482" xlink:href="#me5c7e0cc79" y="179.627609"/>
     <use style="fill:#1f77b4;stroke:#1f77b4;" x="271.198493" xlink:href="#me5c7e0cc79" y="195.84008"/>
     <use style="fill:#1f77b4;stroke:#1f77b4;" x="310.381193" xlink:href="#me5c7e0cc79" y="171.164643"/>
     <use style="fill:#1f77b4;stroke:#1f77b4;" x="231.252279" xlink:href="#me5c7e0cc79" y="190.185496"/>
     <use style="fill:#1f77b4;stroke:#1f77b4;" x="181.02854" xlink:href="#me5c7e0cc79" y="62.587682"/>
     <use style="fill:#1f77b4;stroke:#1f77b4;" x="183.492713" xlink:href="#me5c7e0cc79" y="24.707096"/>
     <use style="fill:#1f77b4;stroke:#1f77b4;" x="215.715839" xlink:href="#me5c7e0cc79" y="177.289315"/>
     <use style="fill:#1f77b4;stroke:#1f77b4;" x="221.875218" xlink:href="#me5c7e0cc79" y="147.297827"/>
     <use style="fill:#1f77b4;stroke:#1f77b4;" x="282.84274" xlink:href="#me5c7e0cc79" y="157.367036"/>
     <use style="fill:#1f77b4;stroke:#1f77b4;" x="180.126369" xlink:href="#me5c7e0cc79" y="95.51822"/>
     <use style="fill:#1f77b4;stroke:#1f77b4;" x="92.026243" xlink:href="#me5c7e0cc79" y="74.5761"/>
     <use style="fill:#1f77b4;stroke:#1f77b4;" x="278.782942" xlink:href="#me5c7e0cc79" y="182.612086"/>
     <use style="fill:#1f77b4;stroke:#1f77b4;" x="290.745689" xlink:href="#me5c7e0cc79" y="195.738438"/>
     <use style="fill:#1f77b4;stroke:#1f77b4;" x="234.237817" xlink:href="#me5c7e0cc79" y="165.737746"/>
     <use style="fill:#1f77b4;stroke:#1f77b4;" x="218.758174" xlink:href="#me5c7e0cc79" y="55.665139"/>
     <use style="fill:#1f77b4;stroke:#1f77b4;" x="192.009698" xlink:href="#me5c7e0cc79" y="176.758564"/>
     <use style="fill:#1f77b4;stroke:#1f77b4;" x="231.048839" xlink:href="#me5c7e0cc79" y="193.871824"/>
     <use style="fill:#1f77b4;stroke:#1f77b4;" x="152.707516" xlink:href="#me5c7e0cc79" y="68.945787"/>
     <use style="fill:#1f77b4;stroke:#1f77b4;" x="212.2321" xlink:href="#me5c7e0cc79" y="74.41153"/>
     <use style="fill:#1f77b4;stroke:#1f77b4;" x="60.322956" xlink:href="#me5c7e0cc79" y="64.678164"/>
     <use style="fill:#1f77b4;stroke:#1f77b4;" x="236.999019" xlink:href="#me5c7e0cc79" y="69.606646"/>
     <use style="fill:#1f77b4;stroke:#1f77b4;" x="100.738269" xlink:href="#me5c7e0cc79" y="96.817725"/>
     <use style="fill:#1f77b4;stroke:#1f77b4;" x="204.185621" xlink:href="#me5c7e0cc79" y="55.427588"/>
     <use style="fill:#1f77b4;stroke:#1f77b4;" x="291.350683" xlink:href="#me5c7e0cc79" y="212.526262"/>
     <use style="fill:#1f77b4;stroke:#1f77b4;" x="286.39277" xlink:href="#me5c7e0cc79" y="193.536281"/>
     <use style="fill:#1f77b4;stroke:#1f77b4;" x="175.996119" xlink:href="#me5c7e0cc79" y="60.94506"/>
     <use style="fill:#1f77b4;stroke:#1f77b4;" x="159.686823" xlink:href="#me5c7e0cc79" y="88.498944"/>
     <use style="fill:#1f77b4;stroke:#1f77b4;" x="148.634231" xlink:href="#me5c7e0cc79" y="67.628442"/>
     <use style="fill:#1f77b4;stroke:#1f77b4;" x="77.869409" xlink:href="#me5c7e0cc79" y="51.519847"/>
     <use style="fill:#1f77b4;stroke:#1f77b4;" x="179.561347" xlink:href="#me5c7e0cc79" y="170.367489"/>
     <use style="fill:#1f77b4;stroke:#1f77b4;" x="125.626103" xlink:href="#me5c7e0cc79" y="63.328664"/>
     <use style="fill:#1f77b4;stroke:#1f77b4;" x="170.892902" xlink:href="#me5c7e0cc79" y="171.038834"/>
     <use style="fill:#1f77b4;stroke:#1f77b4;" x="258.84514" xlink:href="#me5c7e0cc79" y="180.813785"/>
     <use style="fill:#1f77b4;stroke:#1f77b4;" x="188.267788" xlink:href="#me5c7e0cc79" y="191.00726"/>
     <use style="fill:#1f77b4;stroke:#1f77b4;" x="142.463907" xlink:href="#me5c7e0cc79" y="67.384277"/>
     <use style="fill:#1f77b4;stroke:#1f77b4;" x="237.373877" xlink:href="#me5c7e0cc79" y="164.333689"/>
     <use style="fill:#1f77b4;stroke:#1f77b4;" x="231.379796" xlink:href="#me5c7e0cc79" y="187.017429"/>
     <use style="fill:#1f77b4;stroke:#1f77b4;" x="242.216167" xlink:href="#me5c7e0cc79" y="198.210404"/>
     <use style="fill:#1f77b4;stroke:#1f77b4;" x="257.779368" xlink:href="#me5c7e0cc79" y="210.025498"/>
     <use style="fill:#1f77b4;stroke:#1f77b4;" x="150.533963" xlink:href="#me5c7e0cc79" y="77.304558"/>
     <use style="fill:#1f77b4;stroke:#1f77b4;" x="232.272304" xlink:href="#me5c7e0cc79" y="175.709283"/>
     <use style="fill:#1f77b4;stroke:#1f77b4;" x="220.522605" xlink:href="#me5c7e0cc79" y="184.846446"/>
     <use style="fill:#1f77b4;stroke:#1f77b4;" x="162.254724" xlink:href="#me5c7e0cc79" y="94.256447"/>
     <use style="fill:#1f77b4;stroke:#1f77b4;" x="266.072536" xlink:href="#me5c7e0cc79" y="167.906022"/>
     <use style="fill:#1f77b4;stroke:#1f77b4;" x="202.575757" xlink:href="#me5c7e0cc79" y="48.161905"/>
     <use style="fill:#1f77b4;stroke:#1f77b4;" x="183.636286" xlink:href="#me5c7e0cc79" y="60.291996"/>
     <use style="fill:#1f77b4;stroke:#1f77b4;" x="128.513357" xlink:href="#me5c7e0cc79" y="82.17924"/>
     <use style="fill:#1f77b4;stroke:#1f77b4;" x="166.822672" xlink:href="#me5c7e0cc79" y="61.537589"/>
     <use style="fill:#1f77b4;stroke:#1f77b4;" x="118.07136" xlink:href="#me5c7e0cc79" y="17.083636"/>
     <use style="fill:#1f77b4;stroke:#1f77b4;" x="164.703713" xlink:href="#me5c7e0cc79" y="62.107051"/>
     <use style="fill:#1f77b4;stroke:#1f77b4;" x="92.278529" xlink:href="#me5c7e0cc79" y="98.615231"/>
     <use style="fill:#1f77b4;stroke:#1f77b4;" x="263.365753" xlink:href="#me5c7e0cc79" y="175.318129"/>
     <use style="fill:#1f77b4;stroke:#1f77b4;" x="270.00313" xlink:href="#me5c7e0cc79" y="180.840781"/>
     <use style="fill:#1f77b4;stroke:#1f77b4;" x="204.742652" xlink:href="#me5c7e0cc79" y="41.520606"/>
     <use style="fill:#1f77b4;stroke:#1f77b4;" x="327.177628" xlink:href="#me5c7e0cc79" y="179.124211"/>
     <use style="fill:#1f77b4;stroke:#1f77b4;" x="228.933395" xlink:href="#me5c7e0cc79" y="132.435919"/>
     <use style="fill:#1f77b4;stroke:#1f77b4;" x="213.691994" xlink:href="#me5c7e0cc79" y="51.884202"/>
     <use style="fill:#1f77b4;stroke:#1f77b4;" x="254.774538" xlink:href="#me5c7e0cc79" y="200.223721"/>
     <use style="fill:#1f77b4;stroke:#1f77b4;" x="228.563893" xlink:href="#me5c7e0cc79" y="183.239694"/>
     <use style="fill:#1f77b4;stroke:#1f77b4;" x="130.070379" xlink:href="#me5c7e0cc79" y="74.868664"/>
     <use style="fill:#1f77b4;stroke:#1f77b4;" x="152.650109" xlink:href="#me5c7e0cc79" y="78.579663"/>
     <use style="fill:#1f77b4;stroke:#1f77b4;" x="187.190656" xlink:href="#me5c7e0cc79" y="82.149029"/>
     <use style="fill:#1f77b4;stroke:#1f77b4;" x="173.58212" xlink:href="#me5c7e0cc79" y="55.045289"/>
     <use style="fill:#1f77b4;stroke:#1f77b4;" x="277.81737" xlink:href="#me5c7e0cc79" y="160.27187"/>
     <use style="fill:#1f77b4;stroke:#1f77b4;" x="201.099202" xlink:href="#me5c7e0cc79" y="59.121924"/>
     <use style="fill:#1f77b4;stroke:#1f77b4;" x="287.818089" xlink:href="#me5c7e0cc79" y="181.212175"/>
     <use style="fill:#1f77b4;stroke:#1f77b4;" x="245.698312" xlink:href="#me5c7e0cc79" y="174.718369"/>
     <use style="fill:#1f77b4;stroke:#1f77b4;" x="305.130416" xlink:href="#me5c7e0cc79" y="183.341777"/>
     <use style="fill:#1f77b4;stroke:#1f77b4;" x="235.761962" xlink:href="#me5c7e0cc79" y="174.513764"/>
     <use style="fill:#1f77b4;stroke:#1f77b4;" x="161.591659" xlink:href="#me5c7e0cc79" y="63.705761"/>
     <use style="fill:#1f77b4;stroke:#1f77b4;" x="270.234847" xlink:href="#me5c7e0cc79" y="188.976395"/>
     <use style="fill:#1f77b4;stroke:#1f77b4;" x="291.772234" xlink:href="#me5c7e0cc79" y="179.830233"/>
     <use style="fill:#1f77b4;stroke:#1f77b4;" x="186.638737" xlink:href="#me5c7e0cc79" y="180.141238"/>
     <use style="fill:#1f77b4;stroke:#1f77b4;" x="116.949588" xlink:href="#me5c7e0cc79" y="81.629958"/>
     <use style="fill:#1f77b4;stroke:#1f77b4;" x="179.099214" xlink:href="#me5c7e0cc79" y="81.127601"/>
     <use style="fill:#1f77b4;stroke:#1f77b4;" x="242.882066" xlink:href="#me5c7e0cc79" y="176.192186"/>
     <use style="fill:#1f77b4;stroke:#1f77b4;" x="177.831795" xlink:href="#me5c7e0cc79" y="64.056533"/>
     <use style="fill:#1f77b4;stroke:#1f77b4;" x="275.624298" xlink:href="#me5c7e0cc79" y="128.571609"/>
     <use style="fill:#1f77b4;stroke:#1f77b4;" x="203.038836" xlink:href="#me5c7e0cc79" y="57.605296"/>
     <use style="fill:#1f77b4;stroke:#1f77b4;" x="123.984902" xlink:href="#me5c7e0cc79" y="48.688587"/>
     <use style="fill:#1f77b4;stroke:#1f77b4;" x="130.033555" xlink:href="#me5c7e0cc79" y="74.064743"/>
     <use style="fill:#1f77b4;stroke:#1f77b4;" x="261.72988" xlink:href="#me5c7e0cc79" y="186.434082"/>
     <use style="fill:#1f77b4;stroke:#1f77b4;" x="232.581751" xlink:href="#me5c7e0cc79" y="189.825506"/>
     <use style="fill:#1f77b4;stroke:#1f77b4;" x="262.324095" xlink:href="#me5c7e0cc79" y="195.047238"/>
     <use style="fill:#1f77b4;stroke:#1f77b4;" x="208.840118" xlink:href="#me5c7e0cc79" y="195.395464"/>
     <use style="fill:#1f77b4;stroke:#1f77b4;" x="282.591783" xlink:href="#me5c7e0cc79" y="178.560447"/>
     <use style="fill:#1f77b4;stroke:#1f77b4;" x="249.886791" xlink:href="#me5c7e0cc79" y="162.694527"/>
     <use style="fill:#1f77b4;stroke:#1f77b4;" x="285.332513" xlink:href="#me5c7e0cc79" y="184.656368"/>
     <use style="fill:#1f77b4;stroke:#1f77b4;" x="232.466071" xlink:href="#me5c7e0cc79" y="167.184822"/>
     <use style="fill:#1f77b4;stroke:#1f77b4;" x="232.914929" xlink:href="#me5c7e0cc79" y="181.336475"/>
     <use style="fill:#1f77b4;stroke:#1f77b4;" x="199.404832" xlink:href="#me5c7e0cc79" y="58.478923"/>
     <use style="fill:#1f77b4;stroke:#1f77b4;" x="106.633655" xlink:href="#me5c7e0cc79" y="93.652764"/>
     <use style="fill:#1f77b4;stroke:#1f77b4;" x="244.078118" xlink:href="#me5c7e0cc79" y="184.889466"/>
     <use style="fill:#1f77b4;stroke:#1f77b4;" x="317.044586" xlink:href="#me5c7e0cc79" y="169.713023"/>
     <use style="fill:#1f77b4;stroke:#1f77b4;" x="109.468556" xlink:href="#me5c7e0cc79" y="80.60864"/>
     <use style="fill:#1f77b4;stroke:#1f77b4;" x="131.450434" xlink:href="#me5c7e0cc79" y="43.799571"/>
     <use style="fill:#1f77b4;stroke:#1f77b4;" x="170.369673" xlink:href="#me5c7e0cc79" y="43.625741"/>
     <use style="fill:#1f77b4;stroke:#1f77b4;" x="257.152752" xlink:href="#me5c7e0cc79" y="175.925806"/>
     <use style="fill:#1f77b4;stroke:#1f77b4;" x="136.563293" xlink:href="#me5c7e0cc79" y="81.00945"/>
     <use style="fill:#1f77b4;stroke:#1f77b4;" x="211.745599" xlink:href="#me5c7e0cc79" y="176.382587"/>
     <use style="fill:#1f77b4;stroke:#1f77b4;" x="127.924359" xlink:href="#me5c7e0cc79" y="67.465107"/>
     <use style="fill:#1f77b4;stroke:#1f77b4;" x="242.000238" xlink:href="#me5c7e0cc79" y="177.785118"/>
     <use style="fill:#1f77b4;stroke:#1f77b4;" x="147.038714" xlink:href="#me5c7e0cc79" y="87.119039"/>
     <use style="fill:#1f77b4;stroke:#1f77b4;" x="244.729141" xlink:href="#me5c7e0cc79" y="195.608787"/>
    </g>
   </g>
   <g id="matplotlib.axis_1">
    <g id="xtick_1">
     <g id="line2d_1">
      <defs>
       <path d="M 0 0 
L 0 3.5 
" id="m419b705c13" style="stroke:#000000;stroke-width:0.8;"/>
      </defs>
      <g>
       <use style="stroke:#000000;stroke-width:0.8;" x="37.479917" xlink:href="#m419b705c13" y="224.64"/>
      </g>
     </g>
     <g id="text_1">
      <!-- −14 -->
      <g transform="translate(26.927573 239.238437)scale(0.1 -0.1)">
       <defs>
        <path d="M 10.59375 35.5 
L 73.1875 35.5 
L 73.1875 27.203125 
L 10.59375 27.203125 
z
" id="DejaVuSans-8722"/>
        <path d="M 12.40625 8.296875 
L 28.515625 8.296875 
L 28.515625 63.921875 
L 10.984375 60.40625 
L 10.984375 69.390625 
L 28.421875 72.90625 
L 38.28125 72.90625 
L 38.28125 8.296875 
L 54.390625 8.296875 
L 54.390625 0 
L 12.40625 0 
z
" id="DejaVuSans-49"/>
        <path d="M 37.796875 64.3125 
L 12.890625 25.390625 
L 37.796875 25.390625 
z
M 35.203125 72.90625 
L 47.609375 72.90625 
L 47.609375 25.390625 
L 58.015625 25.390625 
L 58.015625 17.1875 
L 47.609375 17.1875 
L 47.609375 0 
L 37.796875 0 
L 37.796875 17.1875 
L 4.890625 17.1875 
L 4.890625 26.703125 
z
" id="DejaVuSans-52"/>
       </defs>
       <use xlink:href="#DejaVuSans-8722"/>
       <use x="83.789062" xlink:href="#DejaVuSans-49"/>
       <use x="147.412109" xlink:href="#DejaVuSans-52"/>
      </g>
     </g>
    </g>
    <g id="xtick_2">
     <g id="line2d_2">
      <g>
       <use style="stroke:#000000;stroke-width:0.8;" x="76.225023" xlink:href="#m419b705c13" y="224.64"/>
      </g>
     </g>
     <g id="text_2">
      <!-- −12 -->
      <g transform="translate(65.67268 239.238437)scale(0.1 -0.1)">
       <defs>
        <path d="M 19.1875 8.296875 
L 53.609375 8.296875 
L 53.609375 0 
L 7.328125 0 
L 7.328125 8.296875 
Q 12.9375 14.109375 22.625 23.890625 
Q 32.328125 33.6875 34.8125 36.53125 
Q 39.546875 41.84375 41.421875 45.53125 
Q 43.3125 49.21875 43.3125 52.78125 
Q 43.3125 58.59375 39.234375 62.25 
Q 35.15625 65.921875 28.609375 65.921875 
Q 23.96875 65.921875 18.8125 64.3125 
Q 13.671875 62.703125 7.8125 59.421875 
L 7.8125 69.390625 
Q 13.765625 71.78125 18.9375 73 
Q 24.125 74.21875 28.421875 74.21875 
Q 39.75 74.21875 46.484375 68.546875 
Q 53.21875 62.890625 53.21875 53.421875 
Q 53.21875 48.921875 51.53125 44.890625 
Q 49.859375 40.875 45.40625 35.40625 
Q 44.1875 33.984375 37.640625 27.21875 
Q 31.109375 20.453125 19.1875 8.296875 
z
" id="DejaVuSans-50"/>
       </defs>
       <use xlink:href="#DejaVuSans-8722"/>
       <use x="83.789062" xlink:href="#DejaVuSans-49"/>
       <use x="147.412109" xlink:href="#DejaVuSans-50"/>
      </g>
     </g>
    </g>
    <g id="xtick_3">
     <g id="line2d_3">
      <g>
       <use style="stroke:#000000;stroke-width:0.8;" x="114.97013" xlink:href="#m419b705c13" y="224.64"/>
      </g>
     </g>
     <g id="text_3">
      <!-- −10 -->
      <g transform="translate(104.417786 239.238437)scale(0.1 -0.1)">
       <defs>
        <path d="M 31.78125 66.40625 
Q 24.171875 66.40625 20.328125 58.90625 
Q 16.5 51.421875 16.5 36.375 
Q 16.5 21.390625 20.328125 13.890625 
Q 24.171875 6.390625 31.78125 6.390625 
Q 39.453125 6.390625 43.28125 13.890625 
Q 47.125 21.390625 47.125 36.375 
Q 47.125 51.421875 43.28125 58.90625 
Q 39.453125 66.40625 31.78125 66.40625 
z
M 31.78125 74.21875 
Q 44.046875 74.21875 50.515625 64.515625 
Q 56.984375 54.828125 56.984375 36.375 
Q 56.984375 17.96875 50.515625 8.265625 
Q 44.046875 -1.421875 31.78125 -1.421875 
Q 19.53125 -1.421875 13.0625 8.265625 
Q 6.59375 17.96875 6.59375 36.375 
Q 6.59375 54.828125 13.0625 64.515625 
Q 19.53125 74.21875 31.78125 74.21875 
z
" id="DejaVuSans-48"/>
       </defs>
       <use xlink:href="#DejaVuSans-8722"/>
       <use x="83.789062" xlink:href="#DejaVuSans-49"/>
       <use x="147.412109" xlink:href="#DejaVuSans-48"/>
      </g>
     </g>
    </g>
    <g id="xtick_4">
     <g id="line2d_4">
      <g>
       <use style="stroke:#000000;stroke-width:0.8;" x="153.715236" xlink:href="#m419b705c13" y="224.64"/>
      </g>
     </g>
     <g id="text_4">
      <!-- −8 -->
      <g transform="translate(146.344143 239.238437)scale(0.1 -0.1)">
       <defs>
        <path d="M 31.78125 34.625 
Q 24.75 34.625 20.71875 30.859375 
Q 16.703125 27.09375 16.703125 20.515625 
Q 16.703125 13.921875 20.71875 10.15625 
Q 24.75 6.390625 31.78125 6.390625 
Q 38.8125 6.390625 42.859375 10.171875 
Q 46.921875 13.96875 46.921875 20.515625 
Q 46.921875 27.09375 42.890625 30.859375 
Q 38.875 34.625 31.78125 34.625 
z
M 21.921875 38.8125 
Q 15.578125 40.375 12.03125 44.71875 
Q 8.5 49.078125 8.5 55.328125 
Q 8.5 64.0625 14.71875 69.140625 
Q 20.953125 74.21875 31.78125 74.21875 
Q 42.671875 74.21875 48.875 69.140625 
Q 55.078125 64.0625 55.078125 55.328125 
Q 55.078125 49.078125 51.53125 44.71875 
Q 48 40.375 41.703125 38.8125 
Q 48.828125 37.15625 52.796875 32.3125 
Q 56.78125 27.484375 56.78125 20.515625 
Q 56.78125 9.90625 50.3125 4.234375 
Q 43.84375 -1.421875 31.78125 -1.421875 
Q 19.734375 -1.421875 13.25 4.234375 
Q 6.78125 9.90625 6.78125 20.515625 
Q 6.78125 27.484375 10.78125 32.3125 
Q 14.796875 37.15625 21.921875 38.8125 
z
M 18.3125 54.390625 
Q 18.3125 48.734375 21.84375 45.5625 
Q 25.390625 42.390625 31.78125 42.390625 
Q 38.140625 42.390625 41.71875 45.5625 
Q 45.3125 48.734375 45.3125 54.390625 
Q 45.3125 60.0625 41.71875 63.234375 
Q 38.140625 66.40625 31.78125 66.40625 
Q 25.390625 66.40625 21.84375 63.234375 
Q 18.3125 60.0625 18.3125 54.390625 
z
" id="DejaVuSans-56"/>
       </defs>
       <use xlink:href="#DejaVuSans-8722"/>
       <use x="83.789062" xlink:href="#DejaVuSans-56"/>
      </g>
     </g>
    </g>
    <g id="xtick_5">
     <g id="line2d_5">
      <g>
       <use style="stroke:#000000;stroke-width:0.8;" x="192.460343" xlink:href="#m419b705c13" y="224.64"/>
      </g>
     </g>
     <g id="text_5">
      <!-- −6 -->
      <g transform="translate(185.089249 239.238437)scale(0.1 -0.1)">
       <defs>
        <path d="M 33.015625 40.375 
Q 26.375 40.375 22.484375 35.828125 
Q 18.609375 31.296875 18.609375 23.390625 
Q 18.609375 15.53125 22.484375 10.953125 
Q 26.375 6.390625 33.015625 6.390625 
Q 39.65625 6.390625 43.53125 10.953125 
Q 47.40625 15.53125 47.40625 23.390625 
Q 47.40625 31.296875 43.53125 35.828125 
Q 39.65625 40.375 33.015625 40.375 
z
M 52.59375 71.296875 
L 52.59375 62.3125 
Q 48.875 64.0625 45.09375 64.984375 
Q 41.3125 65.921875 37.59375 65.921875 
Q 27.828125 65.921875 22.671875 59.328125 
Q 17.53125 52.734375 16.796875 39.40625 
Q 19.671875 43.65625 24.015625 45.921875 
Q 28.375 48.1875 33.59375 48.1875 
Q 44.578125 48.1875 50.953125 41.515625 
Q 57.328125 34.859375 57.328125 23.390625 
Q 57.328125 12.15625 50.6875 5.359375 
Q 44.046875 -1.421875 33.015625 -1.421875 
Q 20.359375 -1.421875 13.671875 8.265625 
Q 6.984375 17.96875 6.984375 36.375 
Q 6.984375 53.65625 15.1875 63.9375 
Q 23.390625 74.21875 37.203125 74.21875 
Q 40.921875 74.21875 44.703125 73.484375 
Q 48.484375 72.75 52.59375 71.296875 
z
" id="DejaVuSans-54"/>
       </defs>
       <use xlink:href="#DejaVuSans-8722"/>
       <use x="83.789062" xlink:href="#DejaVuSans-54"/>
      </g>
     </g>
    </g>
    <g id="xtick_6">
     <g id="line2d_6">
      <g>
       <use style="stroke:#000000;stroke-width:0.8;" x="231.205449" xlink:href="#m419b705c13" y="224.64"/>
      </g>
     </g>
     <g id="text_6">
      <!-- −4 -->
      <g transform="translate(223.834356 239.238437)scale(0.1 -0.1)">
       <use xlink:href="#DejaVuSans-8722"/>
       <use x="83.789062" xlink:href="#DejaVuSans-52"/>
      </g>
     </g>
    </g>
    <g id="xtick_7">
     <g id="line2d_7">
      <g>
       <use style="stroke:#000000;stroke-width:0.8;" x="269.950556" xlink:href="#m419b705c13" y="224.64"/>
      </g>
     </g>
     <g id="text_7">
      <!-- −2 -->
      <g transform="translate(262.579462 239.238437)scale(0.1 -0.1)">
       <use xlink:href="#DejaVuSans-8722"/>
       <use x="83.789062" xlink:href="#DejaVuSans-50"/>
      </g>
     </g>
    </g>
    <g id="xtick_8">
     <g id="line2d_8">
      <g>
       <use style="stroke:#000000;stroke-width:0.8;" x="308.695662" xlink:href="#m419b705c13" y="224.64"/>
      </g>
     </g>
     <g id="text_8">
      <!-- 0 -->
      <g transform="translate(305.514412 239.238437)scale(0.1 -0.1)">
       <use xlink:href="#DejaVuSans-48"/>
      </g>
     </g>
    </g>
    <g id="xtick_9">
     <g id="line2d_9">
      <g>
       <use style="stroke:#000000;stroke-width:0.8;" x="347.440769" xlink:href="#m419b705c13" y="224.64"/>
      </g>
     </g>
     <g id="text_9">
      <!-- 2 -->
      <g transform="translate(344.259519 239.238437)scale(0.1 -0.1)">
       <use xlink:href="#DejaVuSans-50"/>
      </g>
     </g>
    </g>
   </g>
   <g id="matplotlib.axis_2">
    <g id="ytick_1">
     <g id="line2d_10">
      <defs>
       <path d="M 0 0 
L -3.5 0 
" id="m76d8ac90d1" style="stroke:#000000;stroke-width:0.8;"/>
      </defs>
      <g>
       <use style="stroke:#000000;stroke-width:0.8;" x="28.942188" xlink:href="#m76d8ac90d1" y="193.287147"/>
      </g>
     </g>
     <g id="text_10">
      <!-- −5 -->
      <g transform="translate(7.2 197.086366)scale(0.1 -0.1)">
       <defs>
        <path d="M 10.796875 72.90625 
L 49.515625 72.90625 
L 49.515625 64.59375 
L 19.828125 64.59375 
L 19.828125 46.734375 
Q 21.96875 47.46875 24.109375 47.828125 
Q 26.265625 48.1875 28.421875 48.1875 
Q 40.625 48.1875 47.75 41.5 
Q 54.890625 34.8125 54.890625 23.390625 
Q 54.890625 11.625 47.5625 5.09375 
Q 40.234375 -1.421875 26.90625 -1.421875 
Q 22.3125 -1.421875 17.546875 -0.640625 
Q 12.796875 0.140625 7.71875 1.703125 
L 7.71875 11.625 
Q 12.109375 9.234375 16.796875 8.0625 
Q 21.484375 6.890625 26.703125 6.890625 
Q 35.15625 6.890625 40.078125 11.328125 
Q 45.015625 15.765625 45.015625 23.390625 
Q 45.015625 31 40.078125 35.4375 
Q 35.15625 39.890625 26.703125 39.890625 
Q 22.75 39.890625 18.8125 39.015625 
Q 14.890625 38.140625 10.796875 36.28125 
z
" id="DejaVuSans-53"/>
       </defs>
       <use xlink:href="#DejaVuSans-8722"/>
       <use x="83.789062" xlink:href="#DejaVuSans-53"/>
      </g>
     </g>
    </g>
    <g id="ytick_2">
     <g id="line2d_11">
      <g>
       <use style="stroke:#000000;stroke-width:0.8;" x="28.942188" xlink:href="#m76d8ac90d1" y="146.61328"/>
      </g>
     </g>
     <g id="text_11">
      <!-- 0 -->
      <g transform="translate(15.579688 150.412499)scale(0.1 -0.1)">
       <use xlink:href="#DejaVuSans-48"/>
      </g>
     </g>
    </g>
    <g id="ytick_3">
     <g id="line2d_12">
      <g>
       <use style="stroke:#000000;stroke-width:0.8;" x="28.942188" xlink:href="#m76d8ac90d1" y="99.939414"/>
      </g>
     </g>
     <g id="text_12">
      <!-- 5 -->
      <g transform="translate(15.579688 103.738632)scale(0.1 -0.1)">
       <use xlink:href="#DejaVuSans-53"/>
      </g>
     </g>
    </g>
    <g id="ytick_4">
     <g id="line2d_13">
      <g>
       <use style="stroke:#000000;stroke-width:0.8;" x="28.942188" xlink:href="#m76d8ac90d1" y="53.265547"/>
      </g>
     </g>
     <g id="text_13">
      <!-- 10 -->
      <g transform="translate(9.217188 57.064766)scale(0.1 -0.1)">
       <use xlink:href="#DejaVuSans-49"/>
       <use x="63.623047" xlink:href="#DejaVuSans-48"/>
      </g>
     </g>
    </g>
   </g>
   <g id="patch_3">
    <path d="M 28.942188 224.64 
L 28.942188 7.2 
" style="fill:none;stroke:#000000;stroke-linecap:square;stroke-linejoin:miter;stroke-width:0.8;"/>
   </g>
   <g id="patch_4">
    <path d="M 363.742188 224.64 
L 363.742188 7.2 
" style="fill:none;stroke:#000000;stroke-linecap:square;stroke-linejoin:miter;stroke-width:0.8;"/>
   </g>
   <g id="patch_5">
    <path d="M 28.942187 224.64 
L 363.742188 224.64 
" style="fill:none;stroke:#000000;stroke-linecap:square;stroke-linejoin:miter;stroke-width:0.8;"/>
   </g>
   <g id="patch_6">
    <path d="M 28.942187 7.2 
L 363.742188 7.2 
" style="fill:none;stroke:#000000;stroke-linecap:square;stroke-linejoin:miter;stroke-width:0.8;"/>
   </g>
  </g>
 </g>
 <defs>
  <clipPath id="p36de500554">
   <rect height="217.44" width="334.8" x="28.942188" y="7.2"/>
  </clipPath>
 </defs>
</svg>
